<svg xmlns="http://www.w3.org/2000/svg" viewBox="0 0 473.354 211.678"><defs><style>.a,.b{fill:#3f4376}.a{fill-rule:evenodd}</style></defs><path class="a" d="M469.655 47.714c2.44 6 4.06 17.38 3.63 31s-1.62 28-4.75 41.65c-2.37 10.31-5.24 22.8-11.39 29.45-2.15 2.32-6.55 4.94-10 4-4.93-1.27-10.24-8.43-14.1-18.47s-7.43-29.37-8.24-35.46c-2.57-19.27-2.25-40 6-53.8.69-1.16 8.4-15.75 19.34-15.49s16.69 10.18 19.51 17.12zm-21.19 114.73c13.55-1.5 22.24 22.83 13.59 36-3.08 4.72-10.58 8.54-17.67 7.54-9.57-1.39-13.79-13-13.11-23.82.7-10.44 4.8-18.33 17.19-19.72zm-117.49-75.09c2.37 2.14-2.05 8.33 1.78 10.31 2.13 1.09 10.4-1.07 13.24-2.44 3.32-1.62 6.35-2.95 8.91-4.35 11.53-6.32 23.21-12.79 34.07-21.89 5.59-4.69 11.9-10.24 15-16.86 1.42-3 3.17-8.24.16-10.52-2.68-2-8-2.64-8.1-5.06-.3-5.42 12.4-4.47 16.06-2.77 8.27 3.87 9.8 13 4.5 22.57a53.25 53.25 0 0 1-6.57 9.63 146.248 146.248 0 0 1-15.75 14.54c-10.42 8.47-22.3 15.58-33.45 22.24-5.72 3.38-12.07 6.56-17.82 7.93-5.16 1.23-16.33 2.9-20.67-2.83-5.79-7.65 6.31-22.64 8.64-20.5z"/><path class="a" d="M336.915 89.984c-4.12-2.39-9.24-18.64-4.66-31.55 3.68-10.36 12-17.87 19.17-21.72a39.4 39.4 0 0 1 9.14-3.35c7.15-1.56 16.3-.44 26.05 3.58 5.93 2.45 12.94 7.46 12 12.32-1.2 5.9-8.71 12.09-13.14 15.74a174.12 174.12 0 0 1-31.27 20.47c-5.61 2.84-12.9 7.05-17.29 4.51zm31.06 13.68a144.792 144.792 0 0 0 16.47-9.68c6.3-4.27 11.62-9.1 17.57-14.6 2-1.88 4.35-5.08 7.59-5.7s3.48 13.77-14.29 29.93c-7.66 7-18.86 10.66-28.51 9.32-3.34-.47-9.09-1.77-8.31-4.2.71-2.1 7.16-3.54 9.48-5.07zm-235.29 70.39c5.88-.72 5.72-8.7 5.56-17.29-.06-3.21.15-7.61-.48-9.85-1-3.64-5.25-6.12-6.4-9-1.57-3.87-1.14-7.25 1.34-11.08 5.82-9 17.25-14.2 20.77-14.77a10.31 10.31 0 0 1 11.909 8.413q.056.327.091.657c1.2 9.35-.62 17.95-.79 25.9-.32 14.78-1.13 37.47 9.35 45.76 3.55 2.81 12.85 4.12 9.3 12-1.17 2.58-4.72 4.47-7.31 5.44-7.48 2.81-19.88 1.38-25.53-3.08-2.95-2.32-4.14-6.87-7.75-7-3-.13-7 2.19-11.53 3.48-21.18 6-28-6.91-30.25-15.38-1.55-5.79-.39-24-3.18-29.58-1.82-3.64-7.9-2-8-9.33s7.66-16 18.76-22c4.39-2.35 11.7-3.86 16.09-1 5.44 3.52 2.75 19.1 2.49 25.63-.34 9-.48 7.06.83 14.13a11.78 11.78 0 0 0 4.73 7.95zm257.43 0c5.88-.72 5.73-13.19 5.56-21.78-.06-3.21.15-13.1-.48-15.33-1-3.64-5.25-6.12-6.4-9-1.57-3.87-1.14-7.25 1.34-11.08 5.82-9 17.25-14.2 20.77-14.77a10.31 10.31 0 0 1 11.909 8.413q.056.327.091.657c1.2 9.35-.62 23.43-.79 31.39-.32 14.78-3.14 45.37 7.46 53.5 4.81 3.69 3.93 9.53-.07 11.57-7.12 3.63-15.68 3.58-21.34-.88-2.95-2.32-4.39-6.47-8-6.63-3-.13-7 2.19-11.53 3.48-21.18 6-28-6.91-30.25-15.38-1.55-5.79-.39-24-3.18-29.58-1.82-3.64-7.9-6.46-8-13.82s7.66-16 18.76-22c4.39-2.35 11.7-3.86 16.09-1 5.44 3.52 2.74 19.1 2.49 25.63-.34 9-.48 11.55.83 18.62a11.79 11.79 0 0 0 4.74 7.99z"/><path class="a" d="M3.975 192.114c.85-11.46 24.29-12.52 27.69-22.08 2.83-8.05 2.31-45.35 2.31-55.73 0-14.82 1-30.78 1.47-42.21.22-5.52-1.2-18.82-7-18.82-10.8 0-5 14.14-10.8 19.42-4.2 3.8-12.5 5.83-16.21-1-3.54-6.48-.11-20 5.7-26.52 7.31-8.19 22.78-16.38 48.84-16.38 17.65 0 31.93 1 42.67 6.07 25.37 12 29.42 28 30.43 42.6 1.48 21.24-10.5 43-30.9 49.49-6.64 2.11-18.29.83-22.75-4.4s-4.23-14.06-1.84-19.45a24.57 24.57 0 0 1 5.14-7.34c4.49-4.23 11.63-5.24 15.78-10.64 11.1-14.44 3.65-25.56-1-30.32s-15.95-5.92-20.7 1.53c-2.73 4.29-3.59 11.8-4 18-.63 8.82-5.46 84.66 2.57 96.16 3.12 4.47 9.08 5 14.18 8.07 3.9 2.38 8.88 6.35 10.64 10.28 3.56 7.9.63 16-8.81 16.52-5.5.3-22.94-3.65-36.1-3.22s-29.5 2.84-34.46 2.84c-3.85 0-13.77-1.17-12.85-12.87zm195.55-107.76a55.68 55.68 0 0 0-24.71 30.06c-3.49 10.1-4.36 23.45-5.14 34.63-.29 4.19 1.43 15.84 1.84 17.58 2.43 10.43 8.56 20.64 15.78 26.64s21.29 13.59 34.87 13.59c32.66 0 45.37-18.6 47.13-23.34 3.73-10-1.21-18.38-9.33-19-7.3-.57-13.24 4.09-19.18 6.44-9.52 3.76-18 3-25-1.59s-9.94-11.34-12.06-19.26c-2.36-8.83-2.35-20.21-.28-29.54a53.17 53.17 0 0 1 7-16 26.57 26.57 0 0 1 20.73-12.18c13.09-1 26.2 19.65 9.15 28-15.35 7.43-8.65 34.6 11.6 26.91 16.07-6.1 21.34-20 20.54-35.4-.61-11.63-8.42-26-24.93-32.32-6.7-2.59-25.14-8.19-48.01 4.78z"/><path class="b" d="M251.975 11.774c3.88 1.49 8.23.19 11.67 1.16a48.17 48.17 0 0 1 5.21 1.44c1.77.82 3.89-.81 2.17-4.6-4.42-5.79-15.65-11.79-22.71-9.12-4.63 4.27-.44 9.55 3.66 11.12zm-15.36 25.58c4.5 2.22 20.26 3.58 21.65-.16s-14.29-13.39-19.8-12.77-5.24 11.25-1.85 12.93zm80.42 12.54c-1.08-1.5-6.39-8.95-9-8.16-1.73.52-6.58 9-8.27 12.94s-4 12.82-2.77 14.25c2.19 2.58 15.91 2.22 19.83.57 1.27-.54 4.81-2.77 5.56-4.24 1.92-3.84-2.85-11.91-5.35-15.36z"/><path class="b" d="M295.095 29.984c-2.63-1.79-5.47-3.58-8.12-5.06-10.86-6.11-32.14-12.39-41.41-6.82-.83.51-2.53 1.19-2.27 2.2s2.14 1.63 3.19 2c6.49 2.49 15.75 8 17.34 14.11 2.29 8.68-9.87 7.3-18 6.09-2.44-.36-4.55-1.58-5.71-.73s0 5.05 1.23 7.17a19.15 19.15 0 0 0 2.63 3.5c3.36 3.64 9.43 6.35 15.45 9a92.09 92.09 0 0 0 27.07 7.09c1.78.19 4 1 5.41-.42.82-.85 1.33-10.26 3.55-16.23a60.93 60.93 0 0 1 6.91-12.82c1.94-2.89-4.28-7.01-7.27-9.08zm-27.57 17.89c-1-4.07 2.11-11.22 6.74-13.57 7.75-3.92 16.46 3.57 16.52 10.41.09 13.96-20.42 14.42-23.26 3.16zm-14.55 15.74a37 37 0 0 1-10.29-7.18c-2.59-1.87-3.83-1.24-5.77-.49-3.32 1.34-3.7 7.44-1.82 10.06 3.88 5.41 22.61 10 24.72 1.08.23-1.41-4.31-2.31-6.84-3.47zm-20.25-22.4c-5.92-2.81-5.17-16.52.83-19.92 1.18-.67 3.47-.34 4.12-.66s.37-2.09.1-2.92c-1.56-4.89-12-4.65-14.59-2.24-1.42 1.31-2.55 4-3.29 7.36-.35 1.79-1.09 3.66-4.55 3.25-9.38-1.26-21.48-1.61-26.24-1-26.78 3.29-37 12.79-34 19.28 1 2.28 3.51 2.67 3.72 4.41s-3.69 3.27-5.9 4.51a58.308 58.308 0 0 0-6.6 3.85c-1.68 1.39-5.82 5.33-4.06 8.21 1.23 2 8.33 1.57 9.09 3.9.3.94-4.9 6.79-6.91 10.47-5.86 10.77-4 24.7 4.13 27.62 6.38 2.28 2-6.16 4.53-13.37a23.86 23.86 0 0 1 14.06-14.28c2.54-.94 9.31-3 8.31-7.08-.6-2.45-5.53-3-6-5.06s7.08-4.33 12.75-6.08c4.41-1.36 12.81-3.32 12.44-7.19-.29-2.88-6.05-3.66-6.19-5.81-.31-4.68 9.81-7.72 17.41-10.18a49 49 0 0 1 7.8-1.67c3.35-.45 5.56.9 6.06 3.58.86 3.54 2.4 6.26 4.76 7 4 1.32 11.73-2.13 12.25-4.57.22-1.04-2.55-1.03-4.03-1.41z"/><path class="a" d="M312.795 123.804c4.57.2 12.37-7.52 21.06-5.63 3.48.76 8.54 4.69 9.67 10.5 2.52 13.05-2.91 38.79 3.78 52.47 1.59 3.24 8.95 8 8.59 15.36s-13.41 8.25-19.08 8.58c-7.22.43-14.27.6-20.64-2s-3-12.37.19-17.8 5.44-38.55-1.19-38.55c-3.68 0-4.64 10.27-4.92 16.73-.39 8.86-.07 19.49-.07 29.32s-11.47 11.33-13 11.34c-6.31.05-13.93.36-20.62-.42-4-.47-9.4-2.18-8.49-9.43.75-6 7.81-7.39 10.09-11.47s3.09-16.61 3.28-22.63c.28-8.73 1.39-42.1-.66-46.57-1.42-3.11-5.18-3.4-6.23-7.87-2.55-10.84 9.93-20.06 18.69-23.94 6.63-2.94 16.51-5.27 18.37 4.92 1.72 9.75-3.38 36.9 1.18 37.09z"/></svg>